<svg width="2544" height="1980" viewBox="0 0 2544 1980" fill="none" xmlns="http://www.w3.org/2000/svg">
<path d="M485.873 412.237C565.99 329.309 672.405 342.358 783.848 370.219C803.02 375.012 822.357 380.248 841.707 385.487C878.329 395.404 914.997 405.333 950.676 412.293C1005.29 422.948 1058.21 426.798 1106.26 413.036C1154.39 399.248 1199.3 363.669 1243.2 319.3C1272.17 290.029 1300.92 256.693 1329.98 223.001C1344.95 205.644 1360 188.192 1375.2 171.152C1420.04 120.901 1466.34 74.0778 1516.45 42.7653C1566.48 11.4995 1620.16 -4.21083 1679.91 7.50644C1739.97 19.2817 1774.13 44.294 1794.14 76.8415C1814.27 109.574 1820.35 150.331 1823.3 194.191C1824.13 206.458 1824.71 218.98 1825.3 231.614C1826.8 263.892 1828.33 296.903 1834.08 328.264C1842.1 372.065 1858.42 413.191 1894.61 445.707C1946.63 492.444 2009.77 503.063 2069.35 513.084C2075.51 514.12 2081.63 515.149 2087.7 516.211C2152.71 527.596 2211.64 542.694 2248.18 607.752C2283.85 671.269 2272.46 727.707 2252.94 787.335C2249.79 796.939 2246.43 806.633 2243.03 816.453C2225.36 867.435 2206.52 921.789 2210.67 984.46C2214.41 1040.98 2234.89 1091.51 2261.5 1138.4C2280.57 1172 2302.89 1203.89 2324.5 1234.78C2333 1246.92 2341.39 1258.91 2349.43 1270.78C2378.03 1313 2402.25 1353.86 2412.19 1395.93C2422.09 1437.83 2417.84 1481.07 2389.14 1528.25C2339.98 1609.05 2265.46 1622.22 2181.57 1627.33C2170.06 1628.03 2158.38 1628.58 2146.56 1629.13C2072.52 1632.59 1993.42 1636.29 1921.72 1679.57C1858.4 1717.8 1820.38 1768.34 1784 1816.72C1779.77 1822.34 1775.57 1827.92 1771.35 1833.46C1730.76 1886.74 1688.67 1935.42 1611.94 1961.12C1517.19 1992.85 1441.64 1970.31 1364.15 1938.31C1351.94 1933.27 1339.68 1927.99 1327.28 1922.65C1261.09 1894.15 1191.13 1864.02 1105.57 1860.04C1032.04 1856.63 966.811 1879.11 905.761 1900.15C891.631 1905.02 877.725 1909.81 863.992 1914.19C790.737 1937.53 722.087 1949.27 648.175 1900.52C599.558 1868.46 580.858 1825.38 563.411 1779.65C562.206 1776.49 561.007 1773.32 559.804 1770.14C543.624 1727.34 526.765 1682.74 485.755 1644.72C435.167 1597.81 373.608 1587.64 315.243 1577.99C310.193 1577.16 305.167 1576.33 300.174 1575.48C237.222 1564.76 179.416 1551 141.619 1489.21C113.818 1443.76 109.66 1402.73 119.903 1363.48C130.193 1324.05 155.075 1286.18 185.86 1247.31C199.706 1229.83 214.691 1212.21 230.022 1194.18C231.717 1192.19 233.416 1190.19 235.118 1188.19C252.202 1168.08 269.59 1147.46 286.103 1126.04C319.123 1083.21 348.762 1037.07 365.653 985.19C394.252 897.362 393.153 814.281 392.116 735.906C391.861 716.562 391.609 697.506 391.808 678.735C392.815 583.801 405.258 495.68 485.873 412.237Z" fill="#330043" stroke="#330043" stroke-width="6"/>
<path d="M312.341 967.124C387.248 736.679 268.106 538.112 440.018 359.861C611.93 181.61 896.439 417.264 1096.5 359.861C1205.13 328.692 1299.24 190.036 1403.61 77.873M2266.71 967.124C2256.36 810.581 2382.61 704.105 2305.92 567.317C2227.2 426.926 2051.51 502.717 1931.93 395.109C1874.4 343.336 1865.11 270.434 1861.1 197.373" stroke="#330043" stroke-width="6"/>
<path d="M1267.43 1137.7H1373.77V1205.96H1267.43V1137.7Z" fill="#F47155" stroke="#330043" stroke-width="6"/>
<path d="M1569.68 1263.08H1088.66C1089.84 1255.23 1095.67 1247.29 1106.34 1239.61C1118.3 1230.99 1135.8 1223.11 1157.7 1216.44C1201.45 1203.11 1262.07 1194.82 1329.17 1194.82C1396.26 1194.82 1456.89 1203.11 1500.64 1216.44C1522.53 1223.11 1540.03 1230.99 1551.99 1239.61C1562.66 1247.29 1568.49 1255.23 1569.68 1263.08Z" fill="#FFCD34" stroke="#330043" stroke-width="6"/>
<path d="M990.03 1332.78C1003.5 1292.23 1038.99 1263.86 1081.34 1257.01C1146.47 1246.47 1244.63 1232.9 1318.04 1232.9C1390.88 1232.9 1488.1 1246.26 1553.23 1256.77C1596.39 1263.73 1632.37 1293.01 1645.43 1334.56C1658.82 1377.16 1672.73 1432.04 1672.73 1476.01C1672.73 1519.85 1658.91 1574.52 1645.56 1617.07C1632.45 1658.84 1596.18 1688.2 1552.77 1695.01C1487.63 1705.22 1390.69 1718.18 1318.04 1718.18C1244.82 1718.18 1146.93 1705.02 1081.79 1694.77C1039.19 1688.06 1003.42 1659.62 989.899 1618.85C975.727 1576.12 960.854 1520.58 960.854 1476.01C960.854 1431.31 975.82 1375.57 990.03 1332.78Z" fill="#FF4A97" stroke="#330043" stroke-width="6"/>
<path d="M1302.21 1417.67C1310.07 1409.16 1323.51 1409.16 1331.37 1417.67L1342.87 1430.11C1345.18 1432.6 1347.95 1434.62 1351.04 1436.04L1366.42 1443.13C1376.94 1447.98 1381.09 1460.76 1375.43 1470.86L1367.15 1485.64C1365.49 1488.61 1364.43 1491.87 1364.03 1495.24L1362.04 1512.07C1360.69 1523.57 1349.81 1531.47 1338.46 1529.21L1321.84 1525.9C1318.51 1525.24 1315.08 1525.24 1311.74 1525.9L1295.13 1529.21C1283.77 1531.47 1272.9 1523.57 1271.54 1512.07L1269.55 1495.24C1269.15 1491.87 1268.09 1488.61 1266.43 1485.64L1258.15 1470.86C1252.49 1460.76 1256.64 1447.98 1267.16 1443.13L1282.55 1436.04C1285.63 1434.62 1288.41 1432.6 1290.71 1430.11L1302.21 1417.67Z" fill="#FFCD34" stroke="#330043" stroke-width="6"/>
<path d="M1639.3 956.504H1697.63C1757.9 956.504 1806.97 905.535 1806.97 842.397C1806.97 810.139 1802.94 786.466 1791.77 770.857C1780.78 755.512 1762.4 747.332 1731.9 747.332C1718.34 747.332 1703.19 750.806 1691.32 754.348C1685.41 756.11 1680.36 757.874 1676.79 759.195C1675.04 759.843 1673.65 760.383 1672.69 760.765L1639.3 956.504Z" fill="#F47155" stroke="#330043" stroke-width="6"/>
<path d="M995.234 956.504H936.904C876.629 956.504 827.557 905.535 827.557 842.397C827.557 810.139 831.591 786.466 842.764 770.857C853.748 755.512 872.132 747.332 902.628 747.332C916.196 747.332 931.34 750.806 943.215 754.348C949.126 756.11 954.173 757.874 957.74 759.195C959.488 759.843 960.878 760.383 961.838 760.765L995.234 956.504Z" fill="#F47155" stroke="#330043" stroke-width="6"/>
<path d="M1672.72 830.023C1672.72 1003.66 1513.72 1145.02 1316.79 1145.02C1119.85 1145.02 960.848 1003.66 960.848 830.023V829.625V829.227V828.83V828.433V828.037V827.642V827.248V826.854V826.461V826.068V825.676V825.285V824.894V824.504V824.115V823.727V823.339V822.951V822.565V822.179V821.793V821.409V821.025V820.642V820.259V819.877V819.496V819.115V818.735V818.356V817.977V817.599V817.222V816.845V816.469V816.094V815.719V815.345V814.972V814.599V814.228V813.856V813.486V813.116V812.747V812.378V812.01V811.643V811.276V810.91V810.545V810.181V809.817V809.454V809.091V808.73V808.368V808.008V807.648V807.289V806.931V806.573V806.216V805.86V805.504V805.149V804.795V804.441V804.089V803.736V803.385V803.034V802.684V802.334V801.986V801.638V801.29V800.943V800.597V800.252V799.907V799.564V799.22V798.878V798.536V798.195V797.854V797.515V797.176V796.837V796.499V796.162V795.826V795.491V795.156V794.822V794.488V794.155V793.823V793.492V793.161V792.831V792.502V792.173V791.846V791.518V791.192V790.866V790.541V790.217V789.893V789.57V789.248V788.927V788.606V788.286V787.966V787.648V787.33V787.013V786.696V786.38V786.065V785.751V785.437V785.124V784.812V784.5V784.19V783.879V783.57V783.261V782.953V782.646V782.34V782.034V781.729V781.425V781.121V780.818V780.516V780.214V779.914V779.614V779.314V779.016V778.718V778.421V778.124V777.829V777.534V777.24V776.946V776.653V776.361V776.07V775.78V775.49V775.201V774.912V774.625V774.338V774.052V773.766V773.481V773.197V772.914V772.632V772.35V772.069V771.789V771.509V771.23V770.952V770.675V770.398V770.122V769.847V769.573V769.299V769.026V768.754V768.483V768.212V767.942V767.673V767.404V767.137V766.87V766.604V766.338V766.073V765.809V765.546V765.284V765.022V764.761V764.501V764.241V763.983V763.725V763.467V763.211V762.955V762.7V762.446V762.193V761.94V761.688V761.437V761.186V760.937V760.688V760.44V760.192V759.946V759.7V759.455V759.21V758.967V758.724V758.482V758.241V758V757.76V757.521V757.283V757.045V756.809V756.573V756.337V756.103V755.869V755.637V755.404V755.173V754.942V754.713V754.484V754.255V754.028V753.801V753.575V753.35V753.125V752.902V752.679V752.457V752.235V752.015V751.795V751.576V751.358V751.141V750.924V750.708V750.493V750.279V750.065V749.852V749.64V749.429V749.219V749.009V748.8V748.592V748.385V748.178V747.972V747.768V747.563V747.36V747.157V746.956V746.755V746.554V746.355V746.156V745.959V745.761V745.565V745.37V745.175V744.981V744.788V744.596V744.404V744.214V744.024V743.834V743.646V743.459V743.272V743.086V742.901V742.716V742.533V742.35V742.168V741.987V741.807V741.627V741.448V741.27V741.093V740.917V740.741V740.567V740.393V740.22V740.047V739.876V739.705V739.535V739.366V739.198V739.03V738.864V738.698V738.533V738.368V738.205V738.042V737.881V737.72V737.56V737.4V737.242V737.084V736.927V736.771V736.616V736.461V736.307V736.155V736.003V735.851V735.701V735.551V735.403V735.255V735.108V734.961V734.816V734.671V734.527V734.384V734.242V734.101V733.96V733.821V733.682V733.544V733.406V733.27V733.135V733V732.866V732.733V732.601V732.469V732.339V732.209V732.08V731.952V731.824V731.698V731.572V731.448V731.324V731.201V731.078V730.957V730.836V730.717V730.598V730.48V730.362V730.246V730.13V730.016V729.902V729.789V729.677V729.565V729.455V729.345V729.236V729.128V729.021V728.915V728.809V728.705V728.601V728.498V728.396V728.295V728.195V728.095V727.996V727.899V727.802V727.705V727.61V727.516V727.422V727.329V727.238V727.147V727.056V726.967V726.879V726.791V726.704V726.619V726.534V726.449V726.366V726.284V726.202V726.121V726.042V725.962V725.884V725.807V725.731V725.704C962.043 725.8 963.55 725.914 965.344 726.04C970.336 726.388 977.555 726.822 986.482 727.16C1004.33 727.836 1029.03 728.135 1056.41 726.62C1111.01 723.601 1176.96 713.352 1220.4 683.983C1263.81 654.636 1297.9 597.319 1321.05 547.829C1332.66 523.006 1341.59 500.002 1347.62 483.204C1350.6 474.896 1352.88 468.101 1354.41 463.351C1356.09 467.023 1358.38 471.969 1361.23 477.912C1367.68 491.358 1376.96 509.916 1388.33 530.369C1411.01 571.191 1442.15 619.877 1475.67 650.393C1508.33 680.12 1558.21 706.223 1599.69 724.841C1620.47 734.169 1639.23 741.654 1652.79 746.806C1659.58 749.383 1665.06 751.378 1668.85 752.729C1670.46 753.3 1671.75 753.755 1672.72 754.092V754.094V754.135V754.178V754.22V754.263V754.307V754.351V754.396V754.441V754.487V754.533V754.58V754.627V754.675V754.723V754.771V754.821V754.87V754.921V754.971V755.023V755.075V755.127V755.18V755.233V755.287V755.341V755.396V755.452V755.508V755.565V755.622V755.68V755.738V755.797V755.856V755.916V755.976V756.037V756.099V756.161V756.224V756.287V756.351V756.415V756.48V756.546V756.612V756.679V756.746V756.814V756.883V756.952V757.022V757.092V757.163V757.234V757.306V757.379V757.452V757.526V757.601V757.676V757.751V757.828V757.905V757.982V758.061V758.139V758.219V758.299V758.38V758.461V758.543V758.626V758.709V758.793V758.877V758.962V759.048V759.135V759.222V759.31V759.398V759.487V759.577V759.667V759.759V759.85V759.943V760.036V760.13V760.224V760.319V760.415V760.512V760.609V760.707V760.805V760.904V761.004V761.105V761.206V761.308V761.411V761.514V761.619V761.723V761.829V761.935V762.042V762.15V762.258V762.368V762.477V762.588V762.699V762.811V762.924V763.038V763.152V763.267V763.383V763.499V763.616V763.734V763.853V763.972V764.093V764.214V764.335V764.458V764.581V764.705V764.83V764.955V765.082V765.209V765.337V765.465V765.595V765.725V765.856V765.988V766.12V766.254V766.388V766.523V766.658V766.795V766.932V767.07V767.209V767.349V767.49V767.631V767.773V767.916V768.06V768.204V768.35V768.496V768.643V768.791V768.94V769.09V769.24V769.391V769.543V769.696V769.85V770.005V770.16V770.317V770.474V770.632V770.791V770.95V771.111V771.272V771.435V771.598V771.762V771.927V772.093V772.259V772.427V772.596V772.765V772.935V773.106V773.278V773.451V773.625V773.799V773.975V774.151V774.329V774.507V774.686V774.866V775.047V775.229V775.412V775.596V775.78V775.966V776.153V776.34V776.528V776.718V776.908V777.099V777.291V777.484V777.678V777.873V778.069V778.265V778.463V778.662V778.862V779.062V779.264V779.466V779.67V779.874V780.079V780.286V780.493V780.702V780.911V781.121V781.332V781.544V781.758V781.972V782.187V782.403V782.62V782.839V783.058V783.278V783.499V783.721V783.944V784.168V784.394V784.62V784.847V785.075V785.304V785.535V785.766V785.998V786.231V786.466V786.701V786.938V787.175V787.414V787.653V787.894V788.135V788.378V788.621V788.866V789.112V789.359V789.607V789.856V790.106V790.357V790.609V790.862V791.116V791.372V791.628V791.886V792.144V792.404V792.665V792.927V793.189V793.453V793.718V793.985V794.252V794.52V794.79V795.06V795.332V795.605V795.879V796.154V796.43V796.707V796.985V797.265V797.545V797.827V798.11V798.394V798.679V798.965V799.252V799.541V799.831V800.121V800.413V800.706V801V801.296V801.592V801.89V802.189V802.489V802.79V803.092V803.395V803.7V804.006V804.313V804.621V804.93V805.241V805.552V805.865V806.179V806.494V806.811V807.128V807.447V807.767V808.088V808.41V808.734V809.059V809.384V809.712V810.04V810.37V810.7V811.032V811.366V811.7V812.036V812.372V812.711V813.05V813.39V813.732V814.075V814.419V814.765V815.112V815.46V815.809V816.159V816.511V816.864V817.218V817.574V817.931V818.289V818.648V819.008V819.37V819.733V820.098V820.463V820.83V821.198V821.568V821.938V822.31V822.684V823.058V823.434V823.811V824.19V824.569V824.95V825.333V825.716V826.101V826.488V826.875V827.264V827.654V828.046V828.439V828.833V829.228V829.625V830.023Z" fill="#F47155" stroke="#330043" stroke-width="6"/>
<circle cx="1142.52" cy="790.032" r="11.4251" fill="#330043"/>
<circle cx="1424.34" cy="790.032" r="11.4251" fill="#330043"/>
<circle cx="99.9795" cy="1048.05" r="96.9693" fill="#330043" stroke="#330043" stroke-width="6"/>
<circle cx="1069.21" cy="128.333" r="96.9693" fill="#330043" stroke="#330043" stroke-width="6"/>
<circle cx="2444.02" cy="869.057" r="96.9693" fill="#330043" stroke="#330043" stroke-width="6"/>
<path d="M949.012 910.447C949.012 910.447 964.063 984.909 961.92 1019.05C958.528 1073.11 936.208 1115.7 912.068 1114.18C887.928 1112.67 871.108 1067.62 874.5 1013.57C875.97 990.148 888.178 952.419 888.178 952.419" stroke="#FFCD34" stroke-width="6" stroke-linecap="round"/>
<path d="M1682.04 910.447C1682.04 910.447 1666.99 984.909 1669.14 1019.05C1672.53 1073.11 1694.85 1115.7 1718.99 1114.18C1743.13 1112.67 1759.95 1067.62 1756.56 1013.57C1755.09 990.148 1742.88 952.419 1742.88 952.419" stroke="#FFCD34" stroke-width="6" stroke-linecap="round"/>
<path d="M1209.2 947.133C1209.2 947.133 1271.28 991.881 1316.79 991.881C1362.29 991.881 1424.37 947.133 1424.37 947.133" stroke="#330043" stroke-width="6" stroke-linecap="round"/>
<path d="M1304.41 761.473C1304.41 761.473 1300.79 791.316 1293.94 809.077C1287.83 824.915 1272.99 847.161 1272.99 847.161" stroke="#330043" stroke-width="6" stroke-linecap="round"/>
</svg>
